<svg xmlns="http://www.w3.org/2000/svg" xmlns:xlink="http://www.w3.org/1999/xlink" width="928.875" height="687.999" viewBox="0 0 928.875 687.999"><defs><style>.a,.ae,.af,.ag{fill:#6c63ff;}.a,.ai,.k{opacity:0.1;}.b{fill:url(#a);}.c{fill:url(#b);}.d{fill:#f6bac2;}.e{fill:#b77983;}.f,.m{opacity:0.05;}.g{fill:#d39999;}.au,.h{fill:none;}.i{fill:#4b4442;}.j{fill:#8499f0;}.ad,.k{fill:#fff;}.l{fill:#7e646b;}.n{fill:#b7b6cc;}.aa,.af,.o,.s,.w{opacity:0.5;}.p{fill:url(#c);}.q{fill:#f9fafb;}.r,.s,.t{fill:#f7b643;}.ab,.ag,.t,.x{opacity:0.3;}.u{fill:url(#d);}.v,.w,.x{fill:#f97878;}.y{fill:url(#e);}.aa,.ab,.z{fill:#73b53b;}.ac{fill:url(#f);}.ah{fill:#e6ecf8;}.aj{fill:#a8a8a8;}.ak,.an{opacity:0.2;}.al{fill:url(#g);}.am{fill:#f6f7f9;}.ao{fill:url(#h);}.ap{fill:#ae6e79;}.aq{fill:#bebed0;}.ar{fill:#5c5c8e;}.as{fill:#42383c;}.at{fill:#e6e8ee;}.au{stroke:#565987;stroke-miterlimit:10;}.av{fill:#ffd037;}</style><linearGradient id="a" x1="0.5" y1="1" x2="0.5" gradientUnits="objectBoundingBox"><stop offset="0" stop-color="gray" stop-opacity="0.251"/><stop offset="0.54" stop-color="gray" stop-opacity="0.122"/><stop offset="1" stop-color="gray" stop-opacity="0.102"/></linearGradient><linearGradient id="b" x1="0.5" y1="1" x2="0.5" y2="0" xlink:href="#a"/><linearGradient id="c" x1="-0.211" y1="3.614" x2="-0.211" y2="0.343" xlink:href="#a"/><linearGradient id="d" x1="-0.036" y1="4.542" x2="-0.036" y2="1.284" xlink:href="#a"/><linearGradient id="e" x1="-0.017" y1="4.446" x2="-0.017" y2="1.187" xlink:href="#a"/><linearGradient id="f" x1="-1.04" y1="1.715" x2="-1.04" y2="0.715" xlink:href="#a"/><linearGradient id="g" x1="0.551" y1="0.784" x2="0.551" y2="0.225" xlink:href="#a"/><linearGradient id="h" x1="0.5" y1="1" x2="0.5" y2="0" xlink:href="#a"/></defs><g transform="translate(0 -0.002)"><path class="a" d="M444.811,82.025c-30.475-12.388-62.68-22.76-95.558-21.44-48.373,1.9-94.705,30.975-117.465,73.667-19.284,36.165-21.661,78.562-29.967,118.7C191.589,302.4,171.994,349.4,151.054,395.362c-11.249,24.654-23.113,49.907-24.957,76.971-2.566,37.567,15.4,75.012,43.561,100.026s65.591,38.174,103.117,41.052c19.981,1.533,40.855.115,58.606-9.183,18.775-9.839,32.459-27.622,51.309-37.313,17.472-9.019,37.9-10.249,57.515-9.076A257.559,257.559,0,0,1,515.3,573.794c27.409,10.3,52.9,25.2,80.251,35.641s57.909,16.267,85.867,7.551c26.236-8.2,47.012-28.04,65.73-48.168a842.97,842.97,0,0,0,83.792-106.012c16.882-25.285,32.591-51.964,40.06-81.439,14.266-56.343-5.37-119.917-48.939-158.4-36.075-31.877-84.522-45.717-131.936-54.113-43.233-7.658-93.221-8.133-133.019-28.089C519.142,121.7,484.609,98.21,444.811,82.025Z" transform="translate(-50.167 -35.84)"/><path class="b" d="M873.052,147.39c-11.708.467-12.3,30.7-11.569,32.017s-2.656,14.963-2.656,14.963-5.313,20.686-4.7,24.531-2.861,6.362-2.861,6.362c-5.2,2.05-11.716,8.658-13.446,10.47l-.435.467s-5.034,3.28-5.92,4.575-3.28.262-3.28.262-6.805-.656-7.691-.394c-.607.18-1.558-.935-2.1-1.64-.254-.336-.418-.59-.418-.59l-.2-6.1a4.986,4.986,0,0,0-.82-.508c.139-.689.312-1.4.525-2.132a18.267,18.267,0,0,0,7.453-6.69c.2-.312.377-.631.549-.951a2.46,2.46,0,0,0,1.55.435,3.075,3.075,0,0,0,.722-.066,5.829,5.829,0,0,0,2.1-1.058,11.232,11.232,0,0,0,3.9-4.575,7.43,7.43,0,0,0,.369-1.09c-.123.2-.254.41-.385.607a6.305,6.305,0,0,0-.435-5.321c-.64-1.033-1.64-1.869-2.05-3.017-.689-1.976.615-4.017,1.418-5.952a10.011,10.011,0,0,0,.73-5.608,7.166,7.166,0,0,0-3.034-4.731c-3.222-2.091-7.592-.943-11.323-1.951a30.66,30.66,0,0,1-3.895-1.566,29.516,29.516,0,0,0-5.961-1.853c-2.025-.4-4.477-.443-5.739,1.14a11.8,11.8,0,0,0-.935,1.582,5.863,5.863,0,0,1-3.665,2.632,13.743,13.743,0,0,1-2.255.238,2.178,2.178,0,0,0,0-.935c-.951-3.116,1.771-5.428,5.313-6.821s17.013-12,18.579-14.52,12.528-10.413,12.528-10.413,16.4-4.641,21.776-21.547-25.728,11.806-28.86,12.667-7.617,4.1-7.617,4.1l-19.948,11.536a72.242,72.242,0,0,0-10.757,7.428c-4.829,4.173-7.887,11.265-7.887,11.265s-1.91,3.116-4.7,7.625a20.761,20.761,0,0,1-6.084,6.469l.09-.164c-.221.271-7.084,8.937-7.691,12.725s-3.4,19.226-3.4,19.226-2.46,12.126-4.149,14.512c0,0-1.369,6.961-2.181,7.9s-4.1,10.8-3.542,11.8c0,0-3.132,6.83-2.583,9.412l-5.649,13.528s-3.066,6.69-2.861,10.6c.1,1.894.18,4.1.238,5.9v.82h0v.82c-.3.508-1.082,1.8-1.894,3.37-1.164,2.279-2.4,5.124-2.328,6.879.131,3.083.139,10.609-1.279,13.372l-.418-.164a5.738,5.738,0,0,0-.82,2.722l.1.049c0,.238-.074.484-.1.746-.344,3.14.156,7.51-.631,8.469-1.09,1.328-.549,30.762-.549,30.762s-1.771,18.423,1.771,30.1l-.271,9.142s-.139,8.617.271,9.839.549,9.945.549,9.945l2.042,14.586s-2.73,22.539-.41,28.106a30.634,30.634,0,0,1,2.46,9.683,15.057,15.057,0,0,0,3.755,1.451v.82l-.533,13.708v.754s-.066.361-.115.959h0v.336a.4.4,0,0,0,0,.1v.287a2.029,2.029,0,0,0,0,.221,1.6,1.6,0,0,1,0,.2v1.238h0v1.2a2.376,2.376,0,0,0,.066.41.414.414,0,0,0,0,.1,2.1,2.1,0,0,0,.09.451h0a1.745,1.745,0,0,0,.107.443.1.1,0,0,1,0,.049h0a.806.806,0,0,0,.066.23.41.41,0,0,0,0,.107,1.329,1.329,0,0,0,.082.279v.066c.082.23.164.459.262.689a.293.293,0,0,0,0,.074c0,.082.074.172.115.254l.049.115.107.221.066.123.115.2.074.123c0,.066.074.131.115.2a1.528,1.528,0,0,1,.082.131l.123.189.09.123.131.189.1.123.148.18.1.115.172.2.09.1.279.271a.427.427,0,0,0,.09.082,2.24,2.24,0,0,0,.2.189l.131.107.18.148.156.115.18.131.172.115.18.115.188.107.189.115.2.1.2.1.2.1.2.09.221.09.221.082.229.082.246.074.385.115.32.082.254.049.262.057h.279l.271.041h3.46l.443-.041h.271l.746-.082s9.289,1.386,9.593-2.288a2.94,2.94,0,0,1,.041-.59v-.467a1.228,1.228,0,0,1,0-.172V504.4c-.057-1.82-.148-3.509-.2-4.452a5.956,5.956,0,0,0-.049-.82s-3.165-4.772-2.648-6.559.4-7.855.4-7.855-1.23-2.911-2.058-5.485c-.066-.2-.123-.394-.18-.582a30.268,30.268,0,0,0,1.935-2.46,31.156,31.156,0,0,0-2.312-18.693,1.164,1.164,0,0,1-.5-.959.39.39,0,0,1,0-.1l1.582-19.357-.959-11.265s-.681-7.7.82-11.011l2.993-29.163,4.247-16.963s1.361-.664,2.46,2.525,3.8,17.628,3.8,17.628l6.559,23.867s1.09,8.486,2.042,9.683.959,6.494.959,6.494,2.042,4.247,1.771,6.1,0,6.9.672,8.617.959,13.938.959,13.938a28.153,28.153,0,0,0,.271,12.069c1.64,6.1.68,13.791.68,13.791a9.412,9.412,0,0,0,.558.771c-.066.18-.139.361-.205.525-.426,1.107-.762,1.886-.762,1.886s-.1,6.067.41,7.855-2.656,6.559-2.656,6.559,0,.3-.049.82c-.057.943-.148,2.624-.2,4.452v4.673a1.037,1.037,0,0,0,0,.156v.476a3.021,3.021,0,0,0,.041.59c.312,3.673,9.6,2.287,9.6,2.287l.746.09h4.149l.279-.049.271-.041.262-.057.262-.049.32-.082.385-.115.238-.074.23-.082a1.755,1.755,0,0,0,.221-.082l.221-.09.213-.09.2-.09.2-.107.189-.1.2-.107.18-.115.189-.115.164-.115.18-.131a1.091,1.091,0,0,0,.156-.115,1.507,1.507,0,0,0,.18-.139l.139-.115.2-.18.09-.09.279-.271.082-.1.18-.189.09-.123a1.634,1.634,0,0,0,.156-.18l.09-.123.139-.189.082-.123.131-.189a1.133,1.133,0,0,1,.082-.131c0-.066.074-.131.115-.2l.074-.123c0-.074.074-.139.107-.2a.885.885,0,0,0,.066-.123c0-.074.074-.148.107-.221l.057-.115c0-.082.074-.164.115-.254v-.074c.09-.23.18-.459.254-.689v-.066a.879.879,0,0,1,.09-.271.622.622,0,0,1,0-.115.312.312,0,0,1,.066-.23v-.041a.108.108,0,0,0,0-.049,2,2,0,0,1,.115-.435h0a2.834,2.834,0,0,1,.09-.443v-.107a3.165,3.165,0,0,1,.066-.4.321.321,0,0,0,0-.139v-1.066h0v-1.435a2.03,2.03,0,0,1,0-.221v-.287a.4.4,0,0,1,0-.1v-.328h0c-.049-.6-.107-.959-.107-.959v-.746l-.516-13.266v-.82c.762-.426,1.541-.91,2.353-1.476,0,0-.139-7.559,2.042-10.6s-1.09-11.011-1.09-11.011l-1.361-28.507.541-13.118a13.043,13.043,0,0,1-1.64-6.362,23.15,23.15,0,0,0-2.181-8.2s-1.361-4.509.279-5.838-1.771-30.336-1.771-30.336.82-21.194-.738-33.779v-.2l.435-.2c-.131-1.008-.271-1.951-.426-2.829l-.459.139a23.051,23.051,0,0,0-.82-3.28L796.2,321.452s-.049-.525-.107-1.287c-.074-.9-.156-2.124-.172-3.2a5.437,5.437,0,0,1,.148-1.345l-.115-.1a2.978,2.978,0,0,1,.115-.7l-.476-.4s-.066-.451-.115-1.14c-.107-1.525-.164-4.181.59-5.682,1.09-2.189,12.3-10.478,12.3-10.478l6.28-12.569s6.264-8.822,11.027-10.544,19.6-11.593,19.6-11.593,5.173-5.3,5.583-6.559l.172-.262h.1v-.172l13.938-20.883c5.575-4.509,5.78-14.118,5.78-14.118l1.451-21.957-.476-12.987.672-7.379S884.752,146.931,873.052,147.39Zm-79.841,56.818a17.569,17.569,0,0,0-2.312,8.707v.8a17.512,17.512,0,0,0,1.86,7.853,6.437,6.437,0,0,0-1.352,2.4c-.689-.869-2.706-3.526-2.821-5.288a5.5,5.5,0,0,0-2.181-3.575s-.377-4.017.131-4.706l.074-.066s.057-.1.172-.262h0c.582-.877,2.542-3.837,4.567-7.207a6.452,6.452,0,0,0,1.041.344l1.246.312Z" transform="translate(-158.774 -48.781)"/><path class="c" d="M855.68,217.109c.123-.279.221-.574.32-.869a18.153,18.153,0,0,0-.82,2.009C855.352,217.863,855.524,217.486,855.68,217.109Z" transform="translate(-181.528 -63.896)"/><path class="d" d="M809.917,240.534s-2.566,12.233-7.3,13.815,5.739,15.578,5.739,15.578l21.7-1.189.393-4.534s-4.1-9.076,2.763-20.12S809.917,240.534,809.917,240.534Z" transform="translate(-171.84 -67.825)"/><path class="e" d="M765.479,585.761c-.3,3.648-9.273,2.271-9.273,2.271C741.317,590.1,743.777,575.5,743.777,575.5v-.746l.517-13.61.148-3.8s16.4-7.494,15.98-5.92a9.325,9.325,0,0,0,.664,3.542c.82,2.55,1.992,5.436,1.992,5.436s.1,6.018-.393,7.789,2.566,6.51,2.566,6.51,0,.3.049.82a95.652,95.652,0,0,1,.18,10.232Z" transform="translate(-161.435 -124.229)"/><path class="e" d="M803.237,590.066s-8.978,1.386-9.273-2.271a93.26,93.26,0,0,1,.156-10.257,7.317,7.317,0,0,1,.041-.82s3.058-4.739,2.566-6.51-.394-7.8-.394-7.8.32-.763.738-1.861c.877-2.3,2.2-6.043,1.927-7.108-.393-1.582,15.98,5.911,15.98,5.911l.164,4.247.5,13.159v.746S818.134,592.14,803.237,590.066Z" transform="translate(-170.488 -124.591)"/><path class="d" d="M861.219,141.188c-5.214,16.767-21.038,21.374-21.038,21.374s-10.593,7.855-12.1,10.314-14.528,13.02-17.956,14.405-6.043,3.681-5.124,6.764c.82,2.861-8.15,16.865-9.5,18.948h0l-.164.262-2.829,2.96-9.6,4.862-7.822-2.5-.992-9.4,4.149-7.379h0a20.358,20.358,0,0,0,5.879-6.42c2.7-4.477,4.542-7.559,4.542-7.559s2.96-7.035,7.625-11.183a68.992,68.992,0,0,1,10.388-7.379l19.276-11.478s4.337-3.222,7.379-4.1S866.418,124.422,861.219,141.188Z" transform="translate(-166.922 -49.426)"/><path class="f" d="M782.9,229.515l12.823-2.566a.82.82,0,0,0-.23.533h0l-.164.262L792.5,230.7l-9.6,4.862-7.822-2.5-.992-9.4,4.149-7.379h0c-3.927,8.2-.1,14.02-.1,14.02Z" transform="translate(-166.922 -63.905)"/><path class="f" d="M872.4,279.934a2.421,2.421,0,0,0-.09.262,3.6,3.6,0,0,1-.476.82l-5.173,2.525-7.9.82-4.1-9.929,2.73-10.88,1.509-2.033.418-.459c.156,1.968.951,12.233.9,15.315-.066,3.419,2.46,3.689,2.46,3.689Z" transform="translate(-181.436 -71.969)"/><path class="g" d="M851.631,272.578a2.383,2.383,0,0,0-.09.262c-.393,1.246-5.387,6.51-5.387,6.51s-14.34,9.8-18.939,11.478-10.659,10.454-10.659,10.454l-6.051,12.487s-10.847,8.2-11.9,10.4c-.73,1.492-.672,4.1-.566,5.641a5.848,5.848,0,0,0,.1,1.131l-3.2,3.337-2.55,2.656-3.591,3.739-5.846-.82-18.218-2.894-3.493-1.968-19.39-10.921s0-.681-.049-1.722c0-.459,0-.984-.049-1.566-.057-1.771-.139-3.976-.23-5.854-.2-3.878,2.763-10.519,2.763-10.519l5.452-13.422c-.525-2.558,2.5-9.339,2.5-9.339-.525-.984,2.632-10.782,3.419-11.7s2.107-7.83,2.107-7.83c1.64-2.361,4.009-14.4,4.009-14.4s2.7-15.258,3.28-19.071,7.215-12.356,7.428-12.618c-4.731,8.674-.59,14.988-.59,14.988l4.739-.82,12.831-2.5c-.59.394-.2,4.731-.2,4.731a5.469,5.469,0,0,1,2.1,3.55c.123,1.927,2.46,4.919,2.894,5.452l.066.074a6.42,6.42,0,0,1,3.091-4.411l2.96,3.952.992,4.731s-.271.664-1.976,1.976.721,4.731.721,4.731c.82,1.386,1.058,6.51,1.058,6.51h0a9.588,9.588,0,0,1,5.583-1.9,16.906,16.906,0,0,0,3.353-4.8,1.984,1.984,0,0,1,2.828-1.312,18.183,18.183,0,0,1,3.222-2.238c1.582-.82,3.419.82,3.419.82l.2,6.059s.156.246.41.582c.517.721,1.443,1.828,2.025,1.64.82-.262,7.428.394,7.428.394s2.3.984,3.157-.262,5.739-4.534,5.739-4.534.943,12.208.943,15.619,2.46,3.689,2.46,3.689Z" transform="translate(-161.056 -63.858)"/><path class="h" d="M875.962,284.92h-.172C876.1,284.1,875.962,284.92,875.962,284.92Z" transform="translate(-185.24 -76.201)"/><circle class="i" cx="1.181" cy="1.181" r="1.181" transform="translate(635.585 199.545)"/><circle class="i" cx="1.181" cy="1.181" r="1.181" transform="translate(626.968 216.713)"/><circle class="i" cx="1.181" cy="1.181" r="1.181" transform="translate(610.005 253.469)"/><circle class="i" cx="1.181" cy="1.181" r="1.181" transform="translate(618.023 234.923)"/><path class="f" d="M761.311,554.974c-6.166,7.33-12.823,7.207-16.791,6.174l.148-3.8s16.4-7.494,15.98-5.92A8.706,8.706,0,0,0,761.311,554.974Z" transform="translate(-161.596 -124.229)"/><path class="f" d="M815.848,563.64c-10.47,6.051-16.611-1.041-18.038-3.05.877-2.3,2.2-6.043,1.927-7.108-.393-1.582,15.98,5.911,15.98,5.911Z" transform="translate(-171.195 -124.598)"/><path class="j" d="M808.2,513.459c-2.1,3.025-1.976,10.519-1.976,10.519-13.545,9.732-20.645-2.107-20.645-2.107s.918-7.625-.656-13.676a28.541,28.541,0,0,1-.262-11.97s-.262-12.1-.926-13.807-.918-6.707-.656-8.551-1.705-6.043-1.705-6.043,0-5.264-.927-6.444-1.968-9.609-1.968-9.609l-6.3-23.67s-2.632-14.332-3.681-17.488-2.37-2.5-2.37-2.5l-3.788,16.964-2.894,28.934c-1.451,3.28-.82,10.921-.82,10.921l.918,11.175-1.525,19.2a.406.406,0,0,0,0,.1,1.172,1.172,0,0,0,.476.951,31.6,31.6,0,0,1,2.206,18.546c-9.995,14.471-22.1,6.969-22.1,6.969a30.69,30.69,0,0,0-2.361-9.593c-2.238-5.526.394-27.876.394-27.876l-1.976-14.471s-.131-8.683-.525-9.839-.262-9.732-.262-9.732l.262-9.076c-3.419-11.577-1.714-29.852-1.714-29.852s-.525-29.2.533-30.516c.762-.951.279-5.28.607-8.4a5.864,5.864,0,0,1,.771-2.7l.131-.131c1.714-2.107,1.714-10.519,1.574-13.815-.066-1.738,1.123-4.559,2.255-6.821.82-1.591,1.566-2.9,1.845-3.378l.115-.189s7.494,1.845,27.351,11.314a37.322,37.322,0,0,0,11.3,3.5,25.138,25.138,0,0,0,5.9.09,20.578,20.578,0,0,0,8.478-2.755,14.9,14.9,0,0,0,3.665-2.943,24.5,24.5,0,0,0,0,5.3c.049.763.107,1.279.107,1.279l2.189,9.757a25.583,25.583,0,0,1,.82,3.534c.156.869.287,1.812.41,2.812,1.533,12.479.713,33.509.713,33.509s3.28,28.8,1.714,30.115-.271,5.788-.271,5.788a23.344,23.344,0,0,1,2.107,8.15,13.118,13.118,0,0,0,1.582,6.313l-.533,13.02,1.377,28.245S810.306,510.433,808.2,513.459Z" transform="translate(-159.34 -87.174)"/><path class="f" d="M806.13,491.45s9.962-5.739,12.134-3.157S806.13,491.45,806.13,491.45Z" transform="translate(-172.693 -112.776)"/><path class="f" d="M813.388,496.14s-1.64.82,1.976,1.869S813.388,496.14,813.388,496.14Z" transform="translate(-173.934 -114.31)"/><path class="f" d="M740,476.862c-.336.1,8.289,5.821,16.078,1.082C756.043,477.945,741.941,476.272,740,476.862Z" transform="translate(-160.78 -110.815)"/><path class="f" d="M757.257,490.24s-2.361,4.641-7.2,5.329S757.257,490.24,757.257,490.24Z" transform="translate(-162.387 -113.247)"/><path class="f" d="M797.71,502.52s11.347,18.038,9.175,22.293S797.71,502.52,797.71,502.52Z" transform="translate(-171.177 -115.459)"/><path class="f" d="M774.111,369.09,772.93,404.4s7-.3,8.2-11.929,2.074-21.112,2.074-21.112Z" transform="translate(-166.713 -91.426)"/><path class="j" d="M773.631,368.13l-1.181,35.313s7-.3,8.2-11.938,2.091-21.1,2.091-21.1Z" transform="translate(-166.627 -91.254)"/><path class="f" d="M752.579,369.82s-5.526,14.815-18.169,7.641a5.83,5.83,0,0,1,.771-2.7c3.46,1.451,11.478,3.575,14.758-6.034Z" transform="translate(-159.775 -91.362)"/><path class="f" d="M752.1,367.892s-5.526,14.815-18.169,7.641a5.864,5.864,0,0,1,.771-2.7c3.46,1.459,11.478,3.575,14.758-6.026Z" transform="translate(-159.689 -91.016)"/><path class="j" d="M752.1,368.852s-5.526,14.815-18.169,7.641a5.862,5.862,0,0,1,.771-2.7c3.46,1.459,11.478,3.575,14.758-6.026Z" transform="translate(-159.689 -91.189)"/><path class="f" d="M810.92,383.36c-13.889,6.608-18.98-8.97-18.98-8.97l3.28.1c.574,9.962,11.552,7.281,15.315,6.059C810.666,381.449,810.8,382.359,810.92,383.36Z" transform="translate(-170.137 -92.381)"/><path class="f" d="M811.88,381.918c-13.881,6.6-18.98-8.978-18.98-8.978l3.28.1c.574,9.962,11.552,7.289,15.315,6.067C811.626,379.975,811.757,380.918,811.88,381.918Z" transform="translate(-170.31 -92.12)"/><path class="j" d="M811.4,382.4c-13.881,6.6-18.98-8.978-18.98-8.978l3.28.1c.574,9.97,11.552,7.289,15.315,6.067C811.146,380.455,811.277,381.4,811.4,382.4Z" transform="translate(-170.224 -92.206)"/><path class="k" d="M752.1,368.852s-5.526,14.815-18.169,7.641a5.862,5.862,0,0,1,.771-2.7c3.46,1.459,11.478,3.575,14.758-6.026Z" transform="translate(-159.689 -91.189)"/><path class="k" d="M811.4,382.4c-13.881,6.6-18.98-8.978-18.98-8.978l3.28.1c.574,9.97,11.552,7.289,15.315,6.067C811.146,380.455,811.277,381.4,811.4,382.4Z" transform="translate(-170.224 -92.206)"/><path class="f" d="M765.578,588.128a23.272,23.272,0,0,1-.1,2.73c-.3,3.648-9.273,2.271-9.273,2.271-8.2,1.14-11.151-2.8-12.126-6.559a15.012,15.012,0,0,1-.451-3.739,15.487,15.487,0,0,1,.148-2.247v-.746a5.485,5.485,0,0,1,5.1,1.041c3.649,2.96,8.486.689,8.486.689s3.55.3,4.919,1.476c.771.664,2.042-.935,3.009-2.46.057.984.148,2.763.2,4.665C765.562,586.226,765.578,587.209,765.578,588.128Z" transform="translate(-161.436 -129.343)"/><path class="f" d="M751.181,588.63s-2.46,2.41-7.1-1.312a15.013,15.013,0,0,1-.451-3.739C746,585.384,750.394,588.63,751.181,588.63Z" transform="translate(-161.436 -130.059)"/><path class="f" d="M769.815,589.366a1.853,1.853,0,0,1-2.665-.426,17.531,17.531,0,0,0,2.624-2.46C769.8,587.464,769.815,588.448,769.815,589.366Z" transform="translate(-165.672 -130.581)"/><path class="f" d="M793.87,590.189a25.233,25.233,0,0,0,.09,2.73c.3,3.657,9.273,2.271,9.273,2.271,8.2,1.148,11.15-2.788,12.126-6.559a15.747,15.747,0,0,0,.3-5.985V581.9a5.551,5.551,0,0,0-5.108,1.041c-3.648,2.96-8.478.689-8.478.689s-3.55.3-4.919,1.484c-.771.664-2.042-.935-3-2.46-.057.984-.156,2.763-.213,4.665C793.878,588.279,793.861,589.262,793.87,590.189Z" transform="translate(-170.484 -129.715)"/><path class="f" d="M811.43,590.672s2.46,2.411,7.092-1.312a14.958,14.958,0,0,0,.459-3.731C816.6,587.426,812.209,590.672,811.43,590.672Z" transform="translate(-173.648 -130.428)"/><path class="f" d="M793.87,591.426a1.845,1.845,0,0,0,2.656-.426,17.332,17.332,0,0,1-2.624-2.46C793.878,589.516,793.861,590.5,793.87,591.426Z" transform="translate(-170.484 -130.952)"/><path class="f" d="M778.72,285s-12.626,34.853-7.764,37.879S778.72,285,778.72,285Z" transform="translate(-166.157 -76.281)"/><path class="f" d="M791.566,271.88s-2.378,11.577-1.189,12.626S791.566,271.88,791.566,271.88Z" transform="translate(-169.796 -73.918)"/><path class="f" d="M819.81,304.77s-15.52,14.463-14.471,15.652S819.81,304.77,819.81,304.77Z" transform="translate(-172.541 -79.842)"/><path class="f" d="M833.126,264.258c-5.879,1.8-19.62,5.993-19.776,5.961l.763-3.132a9.588,9.588,0,0,1,5.583-1.9,16.906,16.906,0,0,0,3.353-4.8,1.984,1.984,0,0,1,2.829-1.312,18.668,18.668,0,0,1,3.222-2.238c1.582-.82,3.419.82,3.419.82l.2,6.051S832.872,263.922,833.126,264.258Z" transform="translate(-173.993 -71.166)"/><path class="g" d="M833.126,263.318c-5.879,1.8-19.62,5.993-19.776,5.952l.763-3.124a9.588,9.588,0,0,1,5.583-1.9,16.907,16.907,0,0,0,3.353-4.8,1.984,1.984,0,0,1,2.829-1.312,18.19,18.19,0,0,1,3.222-2.238c1.582-.82,3.419.82,3.419.82l.2,6.059S832.872,262.965,833.126,263.318Z" transform="translate(-173.993 -70.996)"/><path class="f" d="M811.222,257.616c.82,1.386,1.049,6.51,1.049,6.51l-2.288,1.82-4.345-12.528-.2-6.51-.082-.369.066.074a6.387,6.387,0,0,1,3.091-4.4l2.96,3.944.992,4.731s-.271.664-1.976,1.976S811.222,257.616,811.222,257.616Z" transform="translate(-172.554 -68.574)"/><path class="g" d="M811.712,257.109c.82,1.386,1.058,6.51,1.058,6.51l-2.287,1.845-4.345-12.528-.2-6.51-.09-.369.066.074a6.42,6.42,0,0,1,3.091-4.411l2.96,3.952.992,4.731s-.271.664-1.976,1.976S811.712,257.109,811.712,257.109Z" transform="translate(-172.643 -68.486)"/><path class="f" d="M840.561,230.449a17.6,17.6,0,1,1-5.153-12.6,17.75,17.75,0,0,1,5.153,12.6Z" transform="translate(-172.5 -63.257)"/><path class="d" d="M840.557,229.48a17.652,17.652,0,1,1-5.171-12.582A17.759,17.759,0,0,1,840.557,229.48Z" transform="translate(-172.497 -63.084)"/><path class="f" d="M841.051,229.476a17.654,17.654,0,0,1-2.583,9.224c-.262-.467-.418-1.008-.68-1.484-.369-.664-1.222-1.222-1.853-.82a1.894,1.894,0,0,0-.582.82c-.516,1.09-1.435,2.181-2.64,2.156a2.615,2.615,0,0,1-2.246-1.919,7.879,7.879,0,0,1-.131-3.132c.18-2.132.213-4.591-1.369-6.026a8.969,8.969,0,0,0-3.427-1.533,4.5,4.5,0,0,1-2.952-2.181c-.328-.82-.246-1.689-.541-2.46a4.3,4.3,0,0,0-3.189-2.345,8.363,8.363,0,0,1-5.583,1.91,20.924,20.924,0,0,1-5.493-.869,17.759,17.759,0,0,1,33.271,8.633Z" transform="translate(-172.99 -63.079)"/><path class="l" d="M821.415,219.415c.3.82.213,1.705.541,2.46a4.476,4.476,0,0,0,2.952,2.181,9.019,9.019,0,0,1,3.427,1.525c1.582,1.443,1.55,3.9,1.369,6.034a7.879,7.879,0,0,0,.131,3.132,2.632,2.632,0,0,0,2.247,1.919,3.262,3.262,0,0,0,2.64-2.156,1.91,1.91,0,0,1,.582-.82c.631-.418,1.484.139,1.853.82a8.127,8.127,0,0,0,1.058,1.992,2.361,2.361,0,0,0,2.156.492,5.437,5.437,0,0,0,2.025-1.049,11.1,11.1,0,0,0,3.771-4.534,6.51,6.51,0,0,0-.238-5.739c-.615-1.033-1.591-1.861-1.976-3-.672-1.96.59-3.976,1.369-5.895a10.233,10.233,0,0,0,.7-5.567,7.149,7.149,0,0,0-2.927-4.7c-3.116-2.074-7.33-.935-10.937-1.935a27.737,27.737,0,0,1-3.763-1.55,27.875,27.875,0,0,0-5.739-1.837c-1.96-.394-4.329-.443-5.567,1.123a12.416,12.416,0,0,0-.9,1.574,5.665,5.665,0,0,1-3.542,2.607c-1.058.254-2.164.189-3.28.344a3.608,3.608,0,0,0-2.73,1.566,5.432,5.432,0,0,0-.18,3.28c.131,1.1.066,2.41-.82,3.091-.418.32-.992.476-1.246.926a1.3,1.3,0,0,0,.385,1.55,3.7,3.7,0,0,0,1.566.689,23.966,23.966,0,0,0,6.289,1.074,8.3,8.3,0,0,0,5.854-2.156c-.139.139-1.041.082-1.205.074C818.865,217.1,820.816,217.808,821.415,219.415Z" transform="translate(-172.359 -61.144)"/><g class="m" transform="translate(632.154 146.654)"><path d="M843.456,237.023a5.582,5.582,0,0,1-2.025,1.058,2.378,2.378,0,0,1-2.148-.5,8,8,0,0,1-1.066-1.992c-.369-.664-1.222-1.222-1.853-.82a2.007,2.007,0,0,0-.582.82c-.508,1.09-1.435,2.181-2.64,2.156a2.6,2.6,0,0,1-2.238-1.919,7.882,7.882,0,0,1-.139-3.132c.189-2.132.213-4.583-1.361-6.026a9.019,9.019,0,0,0-3.435-1.533,4.514,4.514,0,0,1-2.952-2.181c-.328-.82-.246-1.689-.541-2.46a4.286,4.286,0,0,0-3.189-2.345,8.51,8.51,0,0,1-5.583,1.919,24.316,24.316,0,0,1-6.289-1.082,3.8,3.8,0,0,1-1.566-.681,1.732,1.732,0,0,1-.254-.3,2.3,2.3,0,0,0-.918.713,1.3,1.3,0,0,0,.385,1.55,3.7,3.7,0,0,0,1.566.689,23.967,23.967,0,0,0,6.289,1.074,8.437,8.437,0,0,0,5.575-1.91,4.291,4.291,0,0,1,3.2,2.337c.3.82.213,1.705.541,2.46a4.5,4.5,0,0,0,2.952,2.181,9.017,9.017,0,0,1,3.427,1.525c1.582,1.443,1.55,3.9,1.369,6.034a7.879,7.879,0,0,0,.131,3.132,2.632,2.632,0,0,0,2.246,1.919,3.262,3.262,0,0,0,2.64-2.156,1.911,1.911,0,0,1,.582-.82c.631-.418,1.484.139,1.853.82a7.876,7.876,0,0,0,1.066,1.992,2.345,2.345,0,0,0,2.148.492,5.435,5.435,0,0,0,2.025-1.049,11.1,11.1,0,0,0,3.771-4.534,7.245,7.245,0,0,0,.353-1.082A11.691,11.691,0,0,1,843.456,237.023Z" transform="translate(-804.565 -210.869)"/><path d="M854,221.142c.172-.377.336-.754.492-1.123a7.484,7.484,0,0,0,.3-.869A19.4,19.4,0,0,0,854,221.142Z" transform="translate(-813.469 -211.074)"/><path d="M807.2,214.211a3.363,3.363,0,0,0,.746-3.017,13.407,13.407,0,0,1-.156-1.894,2.79,2.79,0,0,0-.451.574,5.432,5.432,0,0,0-.18,3.28A6.393,6.393,0,0,1,807.2,214.211Z" transform="translate(-805.002 -209.3)"/></g><path class="f" d="M798.284,360.673c-1.525.107-3.665.221-6.239.312-1.787.057-3.788.1-5.928.1-1.869,0-3.845,0-5.9-.09A126.4,126.4,0,0,1,760.9,359c-8.519-1.64-16.4-4.468-21.317-9.257.82-1.591,1.566-2.911,1.845-3.378,0-.459,0-.992-.049-1.566,8.65,4.1,35.616,15.488,56.285,9.019a5.849,5.849,0,0,0,.1,1.131l.467.394A24.88,24.88,0,0,0,798.284,360.673Z" transform="translate(-160.707 -87.052)"/><path class="i" d="M798.284,359.711c-1.525.107-3.665.221-6.239.3-1.787.066-3.788.1-5.928.1-1.869,0-3.845,0-5.9-.09a126.367,126.367,0,0,1-19.325-1.984c-8.519-1.64-16.4-4.477-21.317-9.265.82-1.591,1.566-2.9,1.845-3.378,0-.459,0-.984-.049-1.566,8.65,4.1,35.616,15.5,56.285,9.06a5.848,5.848,0,0,0,.1,1.131l.467.394A24.571,24.571,0,0,0,798.284,359.711Z" transform="translate(-160.707 -86.877)"/><path class="n" d="M311.5,720.8a11.273,11.273,0,0,1-2.517-8.584L345.171,416.1l3-24.6a11.355,11.355,0,0,1,11.183-9.97l106-.705a11.339,11.339,0,0,0,11.265-11.651l-.041-1.123a11.347,11.347,0,0,1,11.339-11.733h111.39a11.339,11.339,0,0,1,11.339,11.315,12.109,12.109,0,0,1-.1,1.525A11.339,11.339,0,0,0,621.506,382l106.979,2.73a11.331,11.331,0,0,1,10.888,13.249L685.892,710.356l-1.008,5.9a11.094,11.094,0,0,1-1.64,4.231Z" transform="translate(-83.135 -89.126)"/><g class="o" transform="translate(427.797 202.061)"><rect class="p" width="215.491" height="65.886" transform="matrix(0.568, -0.823, 0.823, 0.568, 0, 177.293)"/></g><rect class="q" width="62.639" height="212.605" transform="matrix(0.823, 0.568, -0.568, 0.823, 551.2, 204.459)"/><rect class="r" width="44.222" height="44.222" transform="matrix(0.821, 0.571, -0.571, 0.821, 554.913, 212.746)"/><rect class="s" width="44.282" height="44.282" transform="matrix(0.823, 0.568, -0.568, 0.823, 526.467, 256.505)"/><rect class="t" width="44.282" height="44.282" transform="matrix(0.823, 0.568, -0.568, 0.823, 496.07, 300.491)"/><g class="o" transform="translate(416.492 191.508)"><rect class="u" width="214.688" height="65.886" transform="matrix(0.28, -0.96, 0.96, 0.28, 0, 206.068)"/></g><rect class="q" width="62.639" height="211.802" transform="matrix(0.96, 0.28, -0.28, 0.96, 478.384, 193.502)"/><rect class="v" width="44.282" height="44.282" transform="matrix(0.96, 0.28, -0.28, 0.96, 486.278, 199.371)"/><rect class="w" width="44.282" height="44.282" transform="matrix(0.96, 0.28, -0.28, 0.96, 471.28, 250.685)"/><rect class="x" width="44.282" height="44.282" transform="matrix(0.96, 0.28, -0.28, 0.96, 456.285, 301.991)"/><g class="o" transform="translate(416.606 195.087)"><rect class="y" width="214.688" height="65.886" transform="matrix(0.08, -0.997, 0.997, 0.08, 0, 213.996)"/></g><rect class="q" width="62.639" height="211.802" transform="matrix(0.997, 0.08, -0.08, 0.997, 435.797, 196.709)"/><rect class="z" width="44.282" height="44.282" transform="matrix(0.997, 0.08, -0.08, 0.997, 444.683, 200.861)"/><rect class="aa" width="44.282" height="44.282" transform="matrix(0.997, 0.08, -0.08, 0.997, 440.391, 254.139)"/><rect class="ab" width="44.282" height="44.282" transform="matrix(0.997, 0.08, -0.08, 0.997, 436.106, 307.433)"/><g class="o" transform="translate(405.48 200.852)"><rect class="ac" width="65.886" height="214.688" transform="translate(0 3) rotate(-2.61)"/></g><rect class="ad" width="62.639" height="211.802" transform="translate(407.706 205.195) rotate(-2.61)"/><rect class="ae" width="44.282" height="44.282" transform="translate(417.035 208.187) rotate(-2.61)"/><rect class="af" width="44.337" height="44.337" transform="translate(421.204 259.899) rotate(-2.862)"/><rect class="ag" width="44.282" height="44.282" transform="translate(421.902 314.997) rotate(-2.61)"/><path class="ah" d="M499.684,568.7l-55.654,21.53-81.341,31.443c-3.075-5.739-7.6-13.5-13.2-22.752-19.267-31.926-51.145-81.587-79.529-125.23-31.976-49.193-59.5-90.7-59.5-90.7l19.923-5.739L393.131,330Z" transform="translate(-65.405 -84.386)"/><path class="ai" d="M504.062,568.7l-55.654,21.53a418.307,418.307,0,0,1-94.566,8.691C334.575,567,302.7,517.336,274.313,473.694L234.77,377.217,397.509,330Z" transform="translate(-69.784 -84.386)"/><path class="ae" d="M543.764,550.085s-86.457,51.145-215.54,39.576L225.32,338.776l49.316-8.478L445.124,301.02,541.87,545.207Z" transform="translate(-68.082 -79.166)"/><path class="ai" d="M552.671,545.247a408.673,408.673,0,0,1-67.608-1.927c-25.646-3.017-51.44-9.232-73.552-20.628-18.488-9.519-34.3-19.874-48.078-32.3-35.854-32.246-58.04-78.373-77.963-160.058L455.957,301.06Z" transform="translate(-78.916 -79.173)"/><path class="q" d="M613.556,515.169s-63.73,12.479-128.6,4.8c-25.646-3.017-51.44-9.232-73.552-20.628-18.488-9.519-34.288-19.874-48.078-32.3-44.372-39.92-67.8-101.1-91.967-224.649,0,0,105.946,25.572,210.711-30.442C482.038,211.991,517.351,432.36,613.556,515.169Z" transform="translate(-76.374 -63.124)"/><path class="ai" d="M505.16,570.793c-25.646-3.017-51.44-9.232-73.552-20.628-18.488-9.519-34.288-19.874-48.078-32.3,37.78-3.066,43.208-23.719,43.208-23.719C454.745,538.6,505.16,570.793,505.16,570.793Z" transform="translate(-96.578 -113.951)"/><path class="ag" d="M338.2,299.251s86.154-4.87,110.209-23.441l3.648,11.724S395.133,312.648,338.2,312.951Z" transform="translate(-88.413 -74.626)"/><path class="ag" d="M338.2,367.309s83.415-4.567,146.44-35.009l2.132,4.87s-50.013,29.2-148.572,36.838Z" transform="translate(-88.413 -84.8)"/><path class="ag" d="M346.39,394.819s83.415-4.567,146.432-35.009l2.132,4.87S444.94,393.868,346.39,401.518Z" transform="translate(-89.888 -89.755)"/><path class="ag" d="M354.57,422.369s83.415-4.567,146.44-35.009l2.124,4.87s-50.013,29.2-148.564,36.838Z" transform="translate(-91.361 -94.717)"/><path class="ag" d="M362.76,449.919s83.415-4.567,146.432-35.009l2.132,4.87s-50.013,29.2-148.564,36.838Z" transform="translate(-92.837 -99.679)"/><path class="ag" d="M370.94,477.479s83.415-4.567,146.44-35.009l2.124,4.87s-50.013,29.188-148.564,36.838Z" transform="translate(-94.31 -104.643)"/><path class="ae" d="M1079.518,827.23s-34.665-2.091-30.582,22.2a5.907,5.907,0,0,0,3.083,6.239s.057-1.8,3.55-1.189a15.921,15.921,0,0,0,3.771.18,7.789,7.789,0,0,0,4.6-1.9h0s9.749-4.026,13.536-19.948c0,0,2.8-3.476,2.689-4.37l-5.846,2.46s2,4.223.426,7.723c0,0-.188-7.568-1.312-7.379-.23,0-3.042,1.459-3.042,1.459s3.435,7.379.82,12.692c0,0,.984-9.06-1.919-12.159l-4.1,2.4s4.017,7.592,1.3,13.791c0,0,.7-9.5-2.164-13.208l-3.731,2.911s3.78,7.486,1.476,12.626c0,0-.3-11.068-2.287-11.9,0,0-3.28,2.878-3.755,4.1,0,0,2.583,5.428.976,8.3,0,0-.984-7.379-1.787-7.379,0,0-3.28,4.919-3.591,8.2a17.73,17.73,0,0,1,2.8-8.7,9.839,9.839,0,0,0-4.985,2.583s.508-3.46,5.788-3.755c0,0,2.689-3.706,3.4-3.935,0,0-5.247-.435-8.428.976,0,0,2.8-3.28,9.4-1.779l3.681-3s-6.912-.951-9.839.1c0,0,3.37-2.886,10.831-.82l4.009-2.394s-5.887-1.271-9.4-.82c0,0,3.7-2,10.577.164l2.861-1.287s-4.313-.82-5.575-.984-1.336-.476-1.336-.476a14.874,14.874,0,0,1,8.109.9S1079.617,827.615,1079.518,827.23Z" transform="translate(-216.365 -173.935)"/><ellipse class="a" cx="24.531" cy="4.149" rx="24.531" ry="4.149" transform="translate(814.747 679.704)"/><ellipse class="a" cx="83.629" cy="7.576" rx="83.629" ry="7.576" transform="translate(583.555 660.789)"/><path class="ae" d="M1102.176,729.424s-19.538-1.181-17.218,12.52a3.337,3.337,0,0,0,1.73,3.517s.041-1.017,2.009-.672a9.112,9.112,0,0,0,2.124.1,4.378,4.378,0,0,0,2.591-1.066h0s5.493-2.271,7.633-11.249c0,0,1.583-1.96,1.517-2.46l-3.28,1.4a5.944,5.944,0,0,1,.238,4.362s-.107-4.272-.738-4.173c-.131,0-1.714.82-1.714.82s1.935,4.1.475,7.158c0,0,.557-5.108-1.082-6.862l-2.32,1.361s2.263,4.28.73,7.773c0,0,.394-5.362-1.222-7.445l-2.1,1.64s2.124,4.222.82,7.117c0,0-.172-6.239-1.287-6.707a13.115,13.115,0,0,0-2.123,2.287s1.459,3.066.557,4.682c0,0-.557-4.157-1.008-4.173,0,0-1.837,2.747-2.025,4.632a10.036,10.036,0,0,1,1.582-4.919,5.493,5.493,0,0,0-2.812,1.459s.287-1.951,3.279-2.115a13.084,13.084,0,0,1,1.918-2.222,12.081,12.081,0,0,0-4.755.549s1.583-1.837,5.3-1l2.083-1.7s-3.9-.533-5.551.057c0,0,1.9-1.64,6.108-.443l2.263-1.353a20.425,20.425,0,0,0-5.3-.451s2.091-1.131,5.961.09l1.64-.722s-2.46-.484-3.148-.557-.754-.271-.754-.271a8.461,8.461,0,0,1,4.575.508S1102.241,729.638,1102.176,729.424Z" transform="translate(-222.879 -156.323)"/><ellipse class="a" cx="13.832" cy="2.337" rx="13.832" ry="2.337" transform="translate(852.019 587.991)"/><path class="ae" d="M960.7,743.923s-23.6-1.427-20.809,15.111a4.026,4.026,0,0,0,2.091,4.247s0-1.23,2.46-.82a10.775,10.775,0,0,0,2.566.123,5.3,5.3,0,0,0,3.132-1.3h0s6.633-2.738,9.216-13.577c0,0,1.91-2.361,1.828-2.976l-4.026,1.705s1.361,2.87.287,5.255c0,0-.131-5.149-.894-5.034-.156,0-2.066,1-2.066,1s2.337,5,.574,8.642c0,0,.672-6.166-1.3-8.281l-2.8,1.64s2.73,5.174.877,9.388c0,0,.476-6.469-1.468-9.019l-2.542,1.984s2.574,5.092,1,8.592c0,0-.2-7.535-1.55-8.1a15.437,15.437,0,0,0-2.558,2.763s1.755,3.7.664,5.649c0,0-.672-5.018-1.222-5.042,0,0-2.206,3.329-2.46,5.6a12.11,12.11,0,0,1,1.91-5.92,6.641,6.641,0,0,0-3.386,1.763s.344-2.353,3.935-2.558c0,0,1.828-2.525,2.32-2.673,0,0-3.575-.3-5.739.656,0,0,1.9-2.214,6.387-1.205l2.509-2.05s-4.7-.64-6.7.066c0,0,2.3-1.96,7.379-.525l2.73-1.64a24.818,24.818,0,0,0-6.4-.549s2.525-1.361,7.2.115l1.951-.877s-2.935-.574-3.8-.664-.9-.328-.9-.328a10.134,10.134,0,0,1,5.518.607S960.772,744.177,960.7,743.923Z" transform="translate(-196.744 -158.933)"/><ellipse class="a" cx="16.701" cy="2.82" rx="16.701" ry="2.82" transform="translate(731.004 602.97)"/><ellipse class="a" cx="24.531" cy="4.149" rx="24.531" ry="4.149" transform="translate(20.276 667.34)"/><path class="aj" d="M68.1,824.263s13.987-.426,18.21-3.427,21.522-6.559,22.572-1.779,21.03,23.957,5.231,24.088-36.706-2.46-40.921-5.026S68.1,824.263,68.1,824.263Z" transform="translate(-39.765 -172.05)"/><path class="ak" d="M114.387,843.118c-15.8.131-36.706-2.46-40.921-5.026-3.2-1.951-4.477-8.961-4.919-12.192H68.08s.885,11.29,5.091,13.856,25.179,5.165,40.937,5.083c4.559-.041,6.133-1.64,6.051-4.1C119.52,842.183,117.782,843.093,114.387,843.118Z" transform="translate(-39.761 -173.704)"/><rect class="al" width="139.93" height="250.41" transform="matrix(0.309, -0.951, 0.951, 0.309, 647.471, 133.076)"/><rect class="am" width="138.003" height="246.95" transform="matrix(0.309, -0.951, 0.951, 0.309, 649.413, 132.698)"/><g class="an" transform="translate(691.641 48.382)"><circle class="ae" cx="25.712" cy="25.712" r="25.712"/></g><g class="an" transform="translate(778.867 62.769)"><rect class="ae" width="7.043" height="112.021" transform="matrix(0.309, -0.951, 0.951, 0.309, 0, 6.698)"/></g><g class="an" transform="translate(773.315 79.845)"><rect class="ae" width="7.043" height="57.064" transform="matrix(0.309, -0.951, 0.951, 0.309, 0, 6.698)"/></g><g class="an" transform="translate(767.753 96.932)"><rect class="ae" width="7.043" height="92.295" transform="matrix(0.309, -0.951, 0.951, 0.309, 0, 6.698)"/></g><g class="an" transform="translate(762.202 114.013)"><rect class="ae" width="7.043" height="112.021" transform="matrix(0.309, -0.951, 0.951, 0.309, 0, 6.698)"/></g><g class="o" transform="translate(829.205 163.727)"><rect class="ae" width="13.618" height="31" transform="matrix(0.309, -0.951, 0.951, 0.309, 0, 12.951)"/></g><path class="ao" d="M931.157,497.9a7.5,7.5,0,0,0-.082-.82,4.171,4.171,0,0,0-.139-.82c-.107-.558-.221-1.107-.353-1.64-.066-.254-.131-.517-.2-.763a20.791,20.791,0,0,0-4.1-7.928c-.107-.131-.221-.254-.328-.377s-.443-.476-.664-.7-.426-.418-.64-.607-.41-.361-.607-.525c-.393-.32-.762-.59-1.082-.82a6.721,6.721,0,0,0-.664-.426,3.642,3.642,0,0,0-1.541-.5l-3.4-.336h0l-4.649-.459-16.619-6.453-.656.23a37.7,37.7,0,0,1-1.23-4.1,3.673,3.673,0,0,0,1.312-.959,2.992,2.992,0,0,0,.9-1.156c.418-.967-.385-3.025-.221-4.206a19.844,19.844,0,0,1,2.05-5.436,25.217,25.217,0,0,0,2.747-11.716,13.215,13.215,0,0,0-5.46-10.4c-1.763-1.172-3.837-1.8-5.674-2.861-1.427-.82-2.681-1.919-4.042-2.853a23.236,23.236,0,0,0-22.891-1.64c-3.452,1.7-6.4,4.239-9.65,6.28s-7.092,3.607-10.9,3a2.664,2.664,0,0,0-.115.476l-.32-.041c-.656,1.787.951,3.558,2.46,4.78,2.812,2.32,6,4.632,9.667,4.714,1.418,0,2.919-.271,4.206.312a3.853,3.853,0,0,1,.82.492,18.268,18.268,0,0,0,5.739,18.21l-8.486-3.05s-.353.18-.9.525l-11.774-7.838s-23.6-8.56-30.164,4.772,28.426,6.453,28.426,6.453l7.485,4.1a6.813,6.813,0,0,0,.82,4.493l20.407,12.61c-4.1,1.271-10.9,3.28-12.1,3.28-1.746,0-6.559,1.722-9.617,8.6s-14,40.437-23.613,46.029-34.976,43.019-34.976,43.019l.115.3c-.451.123-.894.246-1.328.393a26.876,26.876,0,0,0-13.176,9.937,4.214,4.214,0,0,0,2.952,6.649c10.011,1.271,15.479-3.345,18.111-6.83.172-.221.328-.443.476-.664a3.5,3.5,0,0,0,2.46.115l12.241-9.9s-9.576,9.429-3.96,18.038l-.426.6a136.847,136.847,0,0,0-20.5,44.618s-5.247,3.87-5.682,19.357-5.69,40.437-5.69,40.437-3.493,29.688-1.312,38.715c0,0,.254.361.721.91-.164.2-.344.41-.541.623-1.91,2.066-5.354,4.919-9.363,4.1-6.116-1.3-6.116,9.461,2.624,10.322,5.633.549,16.7,3.066,23.875,4.788a5.026,5.026,0,0,0,6.231-5.362,45.416,45.416,0,0,0-2.624-11.839c-.09-.2-.18-.41-.271-.6.254-.246.516-.492.771-.754,0,0,0-18.931,3.066-24.088,0,0,8.306-39.15,7.863-49.046-.336-7.74,21.555-37.887,31.082-50.62l-.082-.484c2.46-3.28,3.985-5.247,3.985-5.247l7.371,46.9s3.5,10.322,7.871,15.914c0,0,18.8,35.706,20.989,46.889,1.64,8.486,5.067,13.5,6.625,15.43l-.566.541c-1.992,1.828-4.919,3.657-8.248,2.96-6.116-1.3-6.116,9.461,2.624,10.322,5.633.557,16.7,3.075,23.867,4.8a5.034,5.034,0,0,0,6.239-5.37c-.5-4.477-1.476-10.044-3.362-13.331a9.238,9.238,0,0,0-.5-.82,4.608,4.608,0,0,0,1.738-1.222s-11.372-27.105-11.372-34.435c0,0-4.8-27.958-20.981-38.281,0,0,1.525-34.976,6.133-54.441.115-.476.23-.951.344-1.41a129.711,129.711,0,0,0,12.757-2.656l.435-12.9,2.189,10.322,24.482-15.053s-.213-2.714-.623-6.871c-.213-2.083-.467-4.526-.771-7.174-.246-2.115-.525-4.362-.82-6.658-.082-.574-.156-1.156-.238-1.73-.32-2.32-.672-4.665-1.05-6.961q-.221-1.3-.443-2.558c-.205-1.123-.41-2.222-.623-3.28-.107-.533-.221-1.066-.328-1.582s-.23-1.033-.344-1.533-.229-.984-.344-1.468c-.066-.238-.123-.476-.18-.705-.123-.467-.246-.926-.369-1.369a24.594,24.594,0,0,1-.885-5.641v-2.271a16.266,16.266,0,0,1,.221-2.263c.049-.369.115-.746.189-1.115a25.033,25.033,0,0,1,1.238-4.395c.271-.713.582-1.418.918-2.115.82-1.64,1.64-3.386,2.509-5.247.443-.927.885-1.878,1.328-2.845s.894-1.951,1.345-2.952c4.255-9.486,8.453-20.055,9.576-27,.115-.73.2-1.418.246-2.066a13.173,13.173,0,0,0,.025-1.771Z" transform="translate(-164.587 -101.923)"/><path class="ap" d="M869.669,479.267l-14.422-9.748s-22.9-8.486-29.262,4.665,27.565,6.362,27.565,6.362l14.422,8.051Z" transform="translate(-176.126 -109.03)"/><rect class="q" width="137.941" height="214.739" transform="matrix(0.541, -0.841, 0.841, 0.541, 537.077, 451.121)"/><rect class="n" width="39.027" height="9.183" transform="matrix(0.536, -0.844, 0.844, 0.536, 563.845, 443.027)"/><rect class="n" width="85.711" height="8.42" transform="matrix(0.536, -0.844, 0.844, 0.536, 588.619, 449.699)"/><rect class="n" width="85.711" height="8.42" transform="matrix(0.536, -0.844, 0.844, 0.536, 603.802, 459.337)"/><rect class="n" width="85.711" height="8.42" transform="matrix(0.536, -0.844, 0.844, 0.536, 618.98, 468.989)"/><rect class="n" width="85.591" height="8.408" transform="matrix(0.541, -0.841, 0.841, 0.541, 634.684, 482.977)"/><rect class="ad" width="85.711" height="8.42" transform="matrix(0.536, -0.844, 0.844, 0.536, 649.339, 488.276)"/><rect class="ad" width="85.711" height="8.42" transform="matrix(0.536, -0.844, 0.844, 0.536, 664.521, 497.913)"/><rect class="n" width="22.194" height="22.194" transform="matrix(0.536, -0.844, 0.844, 0.536, 728.26, 456.818)"/><path class="aq" d="M924.906,839.772c-6.961-1.7-17.693-4.173-23.154-4.723-8.486-.82-8.486-11.478-2.542-10.183,3.214.7,6.067-1.115,7.994-2.911a18.733,18.733,0,0,0,1.64-1.8,4.919,4.919,0,0,1,2.747-1.681c3.181-.689,9.839-1.738,13.864.451a5.994,5.994,0,0,1,2.2,2.41c1.828,3.28,2.779,8.732,3.28,13.118a4.919,4.919,0,0,1-6.026,5.313Z" transform="translate(-188.705 -172.211)"/><path class="aq" d="M794.038,844.95c-6.953-1.7-17.685-4.173-23.145-4.723-8.486-.82-8.486-11.478-2.55-10.175,3.886.82,7.231-1.976,9.076-4.009.23-.246.435-.484.607-.705a4.92,4.92,0,0,1,2.739-1.64c3.181-.7,9.839-1.746,13.872.451a7.505,7.505,0,0,1,2.911,3.878,45.912,45.912,0,0,1,2.542,11.667,4.919,4.919,0,0,1-6.051,5.255Z" transform="translate(-165.135 -173.15)"/><path class="ai" d="M800.458,827.995c-10.126,10.437-18.808-.2-20.128-1.951.23-.246.435-.484.607-.705a4.92,4.92,0,0,1,2.739-1.64c3.181-.7,9.839-1.746,13.872.451A7.079,7.079,0,0,1,800.458,827.995Z" transform="translate(-168.046 -173.15)"/><path class="ai" d="M930.369,821.341c-4.386,2.993-19.153,2.255-19.153,2.255a13.863,13.863,0,0,1-1.336-1.64,18.726,18.726,0,0,0,1.64-1.8,4.919,4.919,0,0,1,2.747-1.681c3.181-.689,9.839-1.738,13.864.451A5.993,5.993,0,0,1,930.369,821.341Z" transform="translate(-191.38 -172.211)"/><path class="ar" d="M907.625,788.451c-2.976,3.821-19.931,2.968-19.931,2.968s-5.092-5.091-7.215-16.111-20.358-46.225-20.358-46.225c-4.239-5.518-7.633-15.693-7.633-15.693l-7.207-46.225s-34.771,45.8-34.345,55.556-7.641,48.373-7.641,48.373c-2.968,5.091-2.968,23.777-2.968,23.777-11.019,11.478-20.35-2.124-20.35-2.124-2.124-8.9,1.271-38.166,1.271-38.166s5.092-24.6,5.51-39.863,5.518-19.079,5.518-19.079a136,136,0,0,1,19.915-44c2.558-3.665,4.255-5.624,4.255-5.624l68.7,8.06a43.263,43.263,0,0,0-2.952,9.1c-4.468,19.185-5.952,53.662-5.952,53.662,15.693,10.175,20.358,37.715,20.358,37.715C896.6,761.731,907.625,788.451,907.625,788.451Z" transform="translate(-167.857 -141.305)"/><g class="m" transform="translate(621.171 504.699)"><path d="M843.643,677.459l-.885-5.649s-34.771,45.8-34.345,55.556-7.633,48.373-7.633,48.373c-2.976,5.092-2.976,23.777-2.976,23.777a14.5,14.5,0,0,1-6.633,4.255c3.337.877,7.379.23,11.724-4.255,0,0,0-18.661,2.968-23.777,0,0,8.059-38.592,7.633-48.373C813.168,719.732,834.394,690,843.643,677.459Z" transform="translate(-791.17 -650.649)"/><path d="M905.173,754.52s-4.665-27.565-20.35-37.715c0,0,1.484-34.476,5.944-53.662a43.212,43.212,0,0,1,2.96-9.1L825.029,646s-.164.18-.459.541l64.066,7.518a43.256,43.256,0,0,0-2.952,9.1c-4.468,19.185-5.952,53.662-5.952,53.662C895.425,727,900.09,754.537,900.09,754.537c0,7.207,11.028,33.927,11.028,33.927-1.755,2.246-8.363,2.878-13.5,3.017,4.1.107,16.127.148,18.587-3.017C916.2,788.447,905.173,761.727,905.173,754.52Z" transform="translate(-797.186 -646)"/></g><path class="ap" d="M803.99,637.116a15.5,15.5,0,0,1-2.009,3.509c-2.55,3.435-7.855,7.977-17.562,6.731a4.173,4.173,0,0,1-2.87-6.559,26.131,26.131,0,0,1,12.782-9.839,23.335,23.335,0,0,1,5.419-1.1Z" transform="translate(-168.127 -138.394)"/><path class="as" d="M909.36,491.318,875.351,478.88s-9.757,5.091-5.936,12.3l33.115,20.784Z" transform="translate(-183.932 -111.201)"/><path class="ai" d="M909.518,491.488,875.5,479.05s-9.757,5.083-5.936,12.3l33.074,20.776Z" transform="translate(-183.959 -111.232)"/><path class="ap" d="M915.771,468.866s-.426,19.931,8.486,26.72-25.876,10.6-25.876,10.6,5.518-20.358,0-30.959S915.771,468.866,915.771,468.866Z" transform="translate(-189.154 -109.247)"/><path class="ai" d="M892.374,654.01a43.255,43.255,0,0,0-2.952,9.1c-40.994,6.264-69.567-10.8-69.567-10.8-.156-.246-.3-.492-.435-.738,2.558-3.665,4.255-5.624,4.255-5.624Z" transform="translate(-175.087 -141.292)"/><path class="ai" d="M806.968,637.125a15.5,15.5,0,0,1-2.009,3.509c-3.927-.656-7.068-8.2-7.65-9.625a23.335,23.335,0,0,1,5.419-1.1Z" transform="translate(-171.105 -138.403)"/><path class="as" d="M901.375,490.78l-15.266,5.51-6.362,8.486s-13.118,4.239-14.84,4.239-6.362,1.7-9.33,8.478-13.569,39.879-22.9,45.381-33.927,42.4-33.927,42.4,4.239,11.478,9.33,9.757l11.872-9.757s-9.33,9.33-3.821,17.816c0,0,34.78,20.776,82.7,8.051l.418-12.716,2.124,10.175,23.777-14.84s-2.124-27.376-5.952-41.306a25.187,25.187,0,0,1,1.64-17.554c6.157-12.831,15.66-34.263,14.5-42.077-1.369-9.207-6.559-13.208-8.56-14.414a3.541,3.541,0,0,0-1.492-.5l-7.764-.771Z" transform="translate(-171.364 -113.344)"/><path class="f" d="M880.464,542.76s-8.486,39.437-17.816,45.8-34.345,26.72-35.2,30.114" transform="translate(-176.533 -122.707)"/><path class="as" d="M875.806,541.21s-8.478,39.437-17.808,45.8-34.353,26.72-35.2,30.106" transform="translate(-175.696 -122.427)"/><path class="ai" d="M897.28,505.912s29.262-9.757,37.715-7.215" transform="translate(-189.11 -114.694)"/><g class="m" transform="translate(728.577 377.436)"><path d="M943.235,556.408c6.157-12.831,15.66-34.263,14.5-42.077-1.369-9.207-6.559-13.208-8.56-14.414a3.542,3.542,0,0,0-1.492-.5l-3.28-.328a3.279,3.279,0,0,1,.984.4c1.984,1.213,7.19,5.206,8.551,14.422,1.156,7.805-8.346,29.245-14.5,42.077a25.171,25.171,0,0,0-1.64,17.546c3.837,13.938,5.961,41.306,5.961,41.306L923.32,627.624l.517,2.46,23.777-14.84s-2.124-27.376-5.952-41.306a25.187,25.187,0,0,1,1.574-17.529Z" transform="translate(-922.377 -492.277)"/><path d="M902.363,466.286l3.673.369-15.971-6.3-1.435.517Z" transform="translate(-888.63 -460.35)"/></g><path class="f" d="M887.45,590.076s13.118-7.207,17.39-5.51,19.931-.426,19.931-.426" transform="translate(-187.34 -130.16)"/><path class="f" d="M914.318,474.544c-.484-4.255,1.484-3.607,1.484-3.607s-22.9-4.239-17.39,6.362a24.286,24.286,0,0,1,2.329,9.322h.221C907.324,486.629,911.038,479.512,914.318,474.544Z" transform="translate(-189.16 -109.62)"/><circle class="ap" cx="18.234" cy="18.234" r="18.234" transform="translate(693.543 338.844)"/><path class="ai" d="M914.062,465.655a25.421,25.421,0,0,0,2.665-11.552c-.2-3.985-1.984-8.027-5.3-10.257-1.705-1.148-3.722-1.763-5.5-2.812-1.386-.82-2.607-1.894-3.927-2.812a22.227,22.227,0,0,0-22.2-1.64c-3.345,1.64-6.2,4.19-9.355,6.2s-6.879,3.55-10.577,2.96c-.64,1.763.926,3.5,2.361,4.714,2.73,2.287,5.821,4.567,9.38,4.641,1.377,0,2.829-.262,4.1.312a5.879,5.879,0,0,1,2.082,1.935,38.191,38.191,0,0,1,4.329,7.338,6.083,6.083,0,0,0,1.935,2.853c1.64,1.049,3.763.172,5.739.1,3.017-.123,5.739,1.779,7.969,3.813s4.362,4.362,7.182,5.436c2.107.82,6.321.771,7.379-1.746.4-.951-.377-2.984-.213-4.149a20.068,20.068,0,0,1,1.951-5.329Z" transform="translate(-182.345 -103.183)"/><path class="as" d="M914.524,465.125a25.306,25.306,0,0,0,2.665-11.544c-.2-3.976-1.976-8.035-5.288-10.257-1.714-1.156-3.73-1.771-5.5-2.82-1.386-.82-2.607-1.886-3.927-2.812a22.227,22.227,0,0,0-22.2-1.64c-3.345,1.64-6.2,4.181-9.355,6.19s-6.879,3.558-10.577,2.96c-.64,1.771.918,3.509,2.361,4.714,2.73,2.287,5.821,4.567,9.38,4.649,1.377,0,2.829-.271,4.1.312a5.74,5.74,0,0,1,2.083,1.935,37.722,37.722,0,0,1,4.321,7.33,6.1,6.1,0,0,0,1.943,2.853c1.64,1.049,3.763.172,5.739.1,3.017-.115,5.739,1.787,7.961,3.821s4.362,4.354,7.19,5.428c2.107.82,6.321.771,7.379-1.746.41-.951-.369-2.984-.2-4.149A20.054,20.054,0,0,1,914.524,465.125Z" transform="translate(-182.43 -103.087)"/><path class="ai" d="M683.227,732.917a8.453,8.453,0,0,1-5.428,1.919l-366.3-1.558a11.274,11.274,0,0,1-2.517-8.584l36.19-296.119,22.694-.246a8.576,8.576,0,0,1,8.363,6.33l4.239,15.643a8.576,8.576,0,0,0,8.478,6.33l90.573-2.173a8.576,8.576,0,0,0,8.371-8.576V435.519a8.576,8.576,0,0,1,8.478-8.576l125.508-1.353a8.576,8.576,0,0,1,8.5,6.961l55.506,290.24.361,1.869a8.527,8.527,0,0,1-3.017,8.256Z" transform="translate(-83.135 -101.603)"/><path class="at" d="M601.385,430.6l-125.508,1.353a8.576,8.576,0,0,0-8.486,8.568v10.372a8.576,8.576,0,0,1-8.363,8.568l-90.565,2.173a8.568,8.568,0,0,1-8.486-6.33l-4.255-15.635a8.568,8.568,0,0,0-8.371-6.33l-120.974,1.3a8.568,8.568,0,0,0-8.363,10l48.669,286.436a8.576,8.576,0,0,0,8.42,7.141l382.182,1.64a8.576,8.576,0,0,0,8.453-10.183L609.887,437.561A8.568,8.568,0,0,0,601.385,430.6Z" transform="translate(-66.744 -102.505)"/><path class="d" d="M892.839,184.653l-.656,7.3.476,12.905-1.386,21.768s-.2,9.535-5.583,14l-13.75,21.112-.082.041-5.173,2.525-7.9.82-4.1-9.929,2.714-10.9,1.509-2.033.418-.459c1.64-1.8,7.969-8.355,13-10.4,0,0,3.353-2.46,2.763-6.313s4.526-24.334,4.526-24.334,3.28-13.545,2.566-14.865-.131-31.3,11.183-31.762S892.839,184.653,892.839,184.653Z" transform="translate(-181.439 -52.708)"/><ellipse class="a" cx="13.29" cy="1.828" rx="13.29" ry="1.828" transform="translate(110.865 572.815)"/><ellipse class="a" cx="13.29" cy="1.828" rx="13.29" ry="1.828" transform="translate(59.958 577.972)"/><ellipse class="a" cx="13.29" cy="1.828" rx="13.29" ry="1.828" transform="translate(0 570.987)"/><ellipse class="a" cx="9.445" cy="1.295" rx="9.445" ry="1.295" transform="translate(84.178 593.205)"/><ellipse class="a" cx="9.445" cy="1.295" rx="9.445" ry="1.295" transform="translate(31.344 591.91)"/><path class="ae" d="M110.1,714.942s18.636-61.1-2.919-85.572c-16.127-18.308-34.435-16.119-42.634-13.856a15.159,15.159,0,0,0-9.773,8.125c-2.87,6.182-2.353,16.217,17.882,27.934,33.87,19.612,35.977,46.512,35.977,46.512Z" transform="translate(-37.136 -135.544)"/><path class="au" d="M70.54,626.41s54.932,17.218,42.634,90.762" transform="translate(-40.204 -137.773)"/><path class="au" d="M108.443,633.92s-7.568,5.1-5.157,12.766" transform="translate(-46.017 -139.126)"/><path class="au" d="M77.26,638.825s4.624-4.706,10.257-2.107" transform="translate(-41.415 -139.489)"/><path class="au" d="M103.75,667.98s8.125-4.1,10.224,1.041" transform="translate(-46.186 -144.981)"/><path class="au" d="M126.9,678.784s-6.1-.484-6.207,2.46" transform="translate(-49.237 -147.201)"/><path class="ae" d="M116.214,728.151S94.381,683.746,88.387,684.7c-2.845.467-4.157,3.28-4.755,6.084a17.865,17.865,0,0,0,1.189,10.806C87.92,708.719,96.242,722.207,116.214,728.151Z" transform="translate(-42.498 -148.268)"/><path class="au" d="M89.71,695s22.908,33.222,27.335,34.681" transform="translate(-43.657 -150.127)"/><line class="au" x2="5.346" transform="translate(43.946 550.063)"/><line class="au" x2="8.387" y2="0.361" transform="translate(50.349 562.214)"/><line class="au" x1="0.91" y2="4.37" transform="translate(54.547 552.49)"/><line class="au" x1="0.164" y2="3.968" transform="translate(64.205 565.78)"/><path class="ae" d="M122.66,728.151s21.825-44.405,27.819-43.454c2.853.467,4.165,3.28,4.755,6.084a17.865,17.865,0,0,1-1.189,10.806C150.946,708.719,142.616,722.207,122.66,728.151Z" transform="translate(-49.592 -148.268)"/><path class="au" d="M150.393,695s-22.957,33.222-27.343,34.681" transform="translate(-49.662 -150.127)"/><line class="au" x1="5.346" transform="translate(97.493 550.063)"/><line class="au" x1="8.387" y2="0.361" transform="translate(88.048 562.214)"/><line class="au" x2="0.91" y2="4.37" transform="translate(91.327 552.49)"/><line class="au" x2="0.164" y2="3.968" transform="translate(82.415 565.78)"/><path class="ae" d="M76.655,749.025a3.771,3.771,0,0,1-1.238-1.878,1.64,1.64,0,0,1,.869-1.91,2.409,2.409,0,0,1,2.3.82A2.933,2.933,0,0,0,80.8,747.1a3.394,3.394,0,0,1-1.049-3.181,1.3,1.3,0,0,1,.287-.648c.443-.476,1.246-.271,1.779.107,1.64,1.181,2.156,3.468,2.165,5.534a10.577,10.577,0,0,0,0-2.279,2.337,2.337,0,0,1,.918-1.992,2.557,2.557,0,0,1,1.3-.312,2.705,2.705,0,0,1,2.124.607,2.107,2.107,0,0,1-.082,2.6,8.363,8.363,0,0,1-2.2,1.755,4.92,4.92,0,0,0-1.566,1.5,1.1,1.1,0,0,0-.115.262H79.6A13.233,13.233,0,0,1,76.655,749.025Z" transform="translate(-41.072 -158.771)"/><path class="ae" d="M178.1,727.216a3.714,3.714,0,0,1-1.238-1.869,1.64,1.64,0,0,1,.861-1.91,2.409,2.409,0,0,1,2.3.82,3.023,3.023,0,0,0,2.238,1.074,3.394,3.394,0,0,1-1.058-3.173,1.3,1.3,0,0,1,.3-.648c.443-.476,1.246-.271,1.779.1,1.681,1.189,2.156,3.476,2.165,5.542a10.657,10.657,0,0,0,0-2.287,2.345,2.345,0,0,1,.82-2.017,2.616,2.616,0,0,1,1.3-.3,2.738,2.738,0,0,1,2.124.6,2.107,2.107,0,0,1-.09,2.607,8.2,8.2,0,0,1-2.189,1.755,4.869,4.869,0,0,0-1.566,1.492,1.346,1.346,0,0,0-.115.271h-4.665A13.121,13.121,0,0,1,178.1,727.216Z" transform="translate(-59.344 -154.852)"/><path class="ae" d="M144.293,749.034a3.845,3.845,0,0,1-1.246-1.878,1.64,1.64,0,0,1,.869-1.91,2.409,2.409,0,0,1,2.3.82,3.048,3.048,0,0,0,2.238,1.082,3.419,3.419,0,0,1-1.058-3.181,1.3,1.3,0,0,1,.3-.648c.443-.476,1.246-.271,1.779.107,1.681,1.181,2.148,3.468,2.165,5.534a10.586,10.586,0,0,0,0-2.279,2.345,2.345,0,0,1,.861-2.017,2.534,2.534,0,0,1,1.3-.312,2.714,2.714,0,0,1,2.123.607,2.1,2.1,0,0,1-.09,2.6,8.323,8.323,0,0,1-2.189,1.755,4.919,4.919,0,0,0-1.566,1.5,1.1,1.1,0,0,0-.115.262H147.2a13.375,13.375,0,0,1-2.911-2.042Z" transform="translate(-53.253 -158.78)"/><path class="ae" d="M47.811,706.25s-1.779,2.328.82,5.846,4.747,6.485,3.878,8.674c0,0-3.927-6.559-7.125-6.617S44.294,710.144,47.811,706.25Z" transform="translate(-35.39 -152.153)"/><path class="ai" d="M47.812,706.25a2.935,2.935,0,0,0-.361.73c-3.116,3.665-4.78,7.084-1.779,7.174,2.788.082,6.141,5.067,6.936,6.329a2.931,2.931,0,0,1-.09.287s-3.927-6.559-7.125-6.617S44.295,710.144,47.812,706.25Z" transform="translate(-35.391 -152.153)"/><path class="av" d="M44.66,709.755c0,.82.09,1.484.2,1.484s.2-.664.2-1.484-.115-.435-.23-.435S44.66,708.935,44.66,709.755Z" transform="translate(-35.543 -152.69)"/><path class="av" d="M43.173,710.947c.722.394,1.345.623,1.4.525s-.484-.492-1.205-.885-.435-.107-.492,0S42.452,710.553,43.173,710.947Z" transform="translate(-35.196 -152.898)"/><path class="ae" d="M59.085,706.25s1.787,2.328-.82,5.846-4.747,6.485-3.878,8.674c0,0,3.927-6.559,7.125-6.617S62.6,710.144,59.085,706.25Z" transform="translate(-37.259 -152.153)"/><path class="ai" d="M59.106,706.25a3.108,3.108,0,0,1,.369.73c3.116,3.665,4.78,7.084,1.779,7.174-2.788.082-6.141,5.067-6.944,6.329a1.692,1.692,0,0,0,.1.287s3.927-6.559,7.125-6.617S62.624,710.144,59.106,706.25Z" transform="translate(-37.281 -152.153)"/><path class="av" d="M64.11,709.755c0,.82-.09,1.484-.2,1.484s-.2-.664-.2-1.484.115-.435.23-.435S64.11,708.935,64.11,709.755Z" transform="translate(-38.972 -152.69)"/><path class="av" d="M65.281,710.947c-.721.394-1.353.623-1.4.525s.484-.492,1.205-.885.435-.107.484,0S65.995,710.553,65.281,710.947Z" transform="translate(-39.004 -152.898)"/><path class="aj" d="M59.44,723s-4.977-.156-6.477-1.222-7.658-2.345-8.035-.631-7.477,8.527-1.861,8.568,13.061-.877,14.561-1.787S59.44,723,59.44,723Z" transform="translate(-34.868 -154.685)"/><path class="ak" d="M42.969,729.7c5.624.049,13.061-.869,14.561-1.787,1.14-.689,1.591-3.181,1.746-4.337h.164s-.312,4.017-1.812,4.919-8.937,1.837-14.561,1.787c-1.64,0-2.181-.59-2.148-1.443C41.141,729.377,41.805,729.664,42.969,729.7Z" transform="translate(-34.869 -155.275)"/><circle class="a" cx="17.734" cy="17.734" r="17.734" transform="translate(10.093 86.154)"/><circle class="a" cx="17.734" cy="17.734" r="17.734" transform="translate(862.85 227.872)"/><circle class="a" cx="17.734" cy="17.734" r="17.734" transform="translate(544.061 29.836)"/><circle class="a" cx="29.721" cy="29.721" r="29.721" transform="translate(33.574 172.005)"/><path class="am" d="M463.431,616.377l-1.049-1.049a1.123,1.123,0,0,1,0-1.64l9.207-9.216a1.123,1.123,0,0,1,1.64,0l9.207,9.207a1.14,1.14,0,0,1,0,1.64l-1.049,1.049a1.14,1.14,0,0,1-1.64,0l-5.444-5.739v13.618a1.131,1.131,0,0,1-1.131,1.14h-1.517a1.14,1.14,0,0,1-1.14-1.14v-13.6l-5.444,5.739a1.14,1.14,0,0,1-1.64-.008Z" transform="translate(-110.716 -133.758)"/><path class="am" d="M470.025,593.8a18.685,18.685,0,1,1-18.685,18.685A18.685,18.685,0,0,1,470.025,593.8m0-2.46a21.145,21.145,0,1,0,21.145,21.145,21.145,21.145,0,0,0-21.145-21.145Z" transform="translate(-108.348 -131.456)"/></g></svg>